<?xml version="1.0" encoding="utf-8" ?>
<svg baseProfile="tiny" height="100%" version="1.2" width="100%" xmlns="http://www.w3.org/2000/svg" xmlns:ev="http://www.w3.org/2001/xml-events" xmlns:xlink="http://www.w3.org/1999/xlink"><defs /><rect fill="black" height="1" width="1" x="5" y="0" /><rect fill="black" height="1" width="1" x="6" y="0" /><rect fill="black" height="1" width="1" x="7" y="0" /><rect fill="black" height="1" width="1" x="8" y="0" /><rect fill="black" height="1" width="1" x="9" y="0" /><rect fill="black" height="1" width="1" x="10" y="0" /><rect fill="black" height="1" width="1" x="11" y="0" /><rect fill="black" height="1" width="1" x="12" y="0" /><rect fill="black" height="1" width="1" x="13" y="0" /><rect fill="black" height="1" width="1" x="14" y="0" /><rect fill="black" height="1" width="1" x="4" y="1" /><rect fill="black" height="1" width="1" x="5" y="1" /><rect fill="black" height="1" width="1" x="6" y="1" /><rect fill="black" height="1" width="1" x="7" y="1" /><rect fill="black" height="1" width="1" x="8" y="1" /><rect fill="black" height="1" width="1" x="9" y="1" /><rect fill="black" height="1" width="1" x="10" y="1" /><rect fill="black" height="1" width="1" x="11" y="1" /><rect fill="black" height="1" width="1" x="12" y="1" /><rect fill="black" height="1" width="1" x="13" y="1" /><rect fill="black" height="1" width="1" x="14" y="1" /><rect fill="black" height="1" width="1" x="15" y="1" /><rect fill="black" height="1" width="1" x="2" y="2" /><rect fill="black" height="1" width="1" x="3" y="2" /><rect fill="black" height="1" width="1" x="4" y="2" /><rect fill="black" height="1" width="1" x="5" y="2" /><rect fill="black" height="1" width="1" x="6" y="2" /><rect fill="black" height="1" width="1" x="7" y="2" /><rect fill="black" height="1" width="1" x="12" y="2" /><rect fill="black" height="1" width="1" x="13" y="2" /><rect fill="black" height="1" width="1" x="14" y="2" /><rect fill="black" height="1" width="1" x="15" y="2" /><rect fill="black" height="1" width="1" x="16" y="2" /><rect fill="black" height="1" width="1" x="17" y="2" /><rect fill="black" height="1" width="1" x="2" y="3" /><rect fill="black" height="1" width="1" x="3" y="3" /><rect fill="black" height="1" width="1" x="4" y="3" /><rect fill="black" height="1" width="1" x="5" y="3" /><rect fill="black" height="1" width="1" x="14" y="3" /><rect fill="black" height="1" width="1" x="15" y="3" /><rect fill="black" height="1" width="1" x="16" y="3" /><rect fill="black" height="1" width="1" x="17" y="3" /><rect fill="black" height="1" width="1" x="1" y="4" /><rect fill="black" height="1" width="1" x="2" y="4" /><rect fill="black" height="1" width="1" x="3" y="4" /><rect fill="black" height="1" width="1" x="16" y="4" /><rect fill="black" height="1" width="1" x="17" y="4" /><rect fill="black" height="1" width="1" x="18" y="4" /><rect fill="black" height="1" width="1" x="0" y="5" /><rect fill="black" height="1" width="1" x="1" y="5" /><rect fill="black" height="1" width="1" x="2" y="5" /><rect fill="black" height="1" width="1" x="3" y="5" /><rect fill="black" height="1" width="1" x="16" y="5" /><rect fill="black" height="1" width="1" x="17" y="5" /><rect fill="black" height="1" width="1" x="18" y="5" /><rect fill="black" height="1" width="1" x="19" y="5" /><rect fill="black" height="1" width="1" x="0" y="6" /><rect fill="black" height="1" width="1" x="1" y="6" /><rect fill="black" height="1" width="1" x="2" y="6" /><rect fill="black" height="1" width="1" x="17" y="6" /><rect fill="black" height="1" width="1" x="18" y="6" /><rect fill="black" height="1" width="1" x="19" y="6" /><rect fill="black" height="1" width="1" x="0" y="7" /><rect fill="black" height="1" width="1" x="1" y="7" /><rect fill="black" height="1" width="1" x="2" y="7" /><rect fill="black" height="1" width="1" x="18" y="7" /><rect fill="black" height="1" width="1" x="19" y="7" /><rect fill="black" height="1" width="1" x="0" y="8" /><rect fill="black" height="1" width="1" x="1" y="8" /><rect fill="black" height="1" width="1" x="18" y="8" /><rect fill="black" height="1" width="1" x="19" y="8" /><rect fill="black" height="1" width="1" x="0" y="9" /><rect fill="black" height="1" width="1" x="1" y="9" /><rect fill="black" height="1" width="1" x="18" y="9" /><rect fill="black" height="1" width="1" x="19" y="9" /><rect fill="black" height="1" width="1" x="20" y="9" /><rect fill="black" height="1" width="1" x="0" y="10" /><rect fill="black" height="1" width="1" x="1" y="10" /><rect fill="black" height="1" width="1" x="18" y="10" /><rect fill="black" height="1" width="1" x="19" y="10" /><rect fill="black" height="1" width="1" x="20" y="10" /><rect fill="black" height="1" width="1" x="0" y="11" /><rect fill="black" height="1" width="1" x="1" y="11" /><rect fill="black" height="1" width="1" x="18" y="11" /><rect fill="black" height="1" width="1" x="19" y="11" /><rect fill="black" height="1" width="1" x="0" y="12" /><rect fill="black" height="1" width="1" x="1" y="12" /><rect fill="black" height="1" width="1" x="2" y="12" /><rect fill="black" height="1" width="1" x="18" y="12" /><rect fill="black" height="1" width="1" x="19" y="12" /><rect fill="black" height="1" width="1" x="0" y="13" /><rect fill="black" height="1" width="1" x="1" y="13" /><rect fill="black" height="1" width="1" x="2" y="13" /><rect fill="black" height="1" width="1" x="17" y="13" /><rect fill="black" height="1" width="1" x="18" y="13" /><rect fill="black" height="1" width="1" x="19" y="13" /><rect fill="black" height="1" width="1" x="0" y="14" /><rect fill="black" height="1" width="1" x="1" y="14" /><rect fill="black" height="1" width="1" x="2" y="14" /><rect fill="black" height="1" width="1" x="3" y="14" /><rect fill="black" height="1" width="1" x="16" y="14" /><rect fill="black" height="1" width="1" x="17" y="14" /><rect fill="black" height="1" width="1" x="18" y="14" /><rect fill="black" height="1" width="1" x="19" y="14" /><rect fill="black" height="1" width="1" x="1" y="15" /><rect fill="black" height="1" width="1" x="2" y="15" /><rect fill="black" height="1" width="1" x="3" y="15" /><rect fill="black" height="1" width="1" x="4" y="15" /><rect fill="black" height="1" width="1" x="16" y="15" /><rect fill="black" height="1" width="1" x="17" y="15" /><rect fill="black" height="1" width="1" x="18" y="15" /><rect fill="black" height="1" width="1" x="2" y="16" /><rect fill="black" height="1" width="1" x="3" y="16" /><rect fill="black" height="1" width="1" x="4" y="16" /><rect fill="black" height="1" width="1" x="5" y="16" /><rect fill="black" height="1" width="1" x="14" y="16" /><rect fill="black" height="1" width="1" x="15" y="16" /><rect fill="black" height="1" width="1" x="16" y="16" /><rect fill="black" height="1" width="1" x="17" y="16" /><rect fill="black" height="1" width="1" x="3" y="17" /><rect fill="black" height="1" width="1" x="4" y="17" /><rect fill="black" height="1" width="1" x="5" y="17" /><rect fill="black" height="1" width="1" x="6" y="17" /><rect fill="black" height="1" width="1" x="7" y="17" /><rect fill="black" height="1" width="1" x="8" y="17" /><rect fill="black" height="1" width="1" x="12" y="17" /><rect fill="black" height="1" width="1" x="13" y="17" /><rect fill="black" height="1" width="1" x="14" y="17" /><rect fill="black" height="1" width="1" x="15" y="17" /><rect fill="black" height="1" width="1" x="16" y="17" /><rect fill="black" height="1" width="1" x="17" y="17" /><rect fill="black" height="1" width="1" x="18" y="17" /><rect fill="black" height="1" width="1" x="4" y="18" /><rect fill="black" height="1" width="1" x="5" y="18" /><rect fill="black" height="1" width="1" x="6" y="18" /><rect fill="black" height="1" width="1" x="7" y="18" /><rect fill="black" height="1" width="1" x="8" y="18" /><rect fill="black" height="1" width="1" x="9" y="18" /><rect fill="black" height="1" width="1" x="10" y="18" /><rect fill="black" height="1" width="1" x="11" y="18" /><rect fill="black" height="1" width="1" x="12" y="18" /><rect fill="black" height="1" width="1" x="13" y="18" /><rect fill="black" height="1" width="1" x="14" y="18" /><rect fill="black" height="1" width="1" x="15" y="18" /><rect fill="black" height="1" width="1" x="16" y="18" /><rect fill="black" height="1" width="1" x="17" y="18" /><rect fill="black" height="1" width="1" x="18" y="18" /><rect fill="black" height="1" width="1" x="19" y="18" /><rect fill="black" height="1" width="1" x="6" y="19" /><rect fill="black" height="1" width="1" x="7" y="19" /><rect fill="black" height="1" width="1" x="8" y="19" /><rect fill="black" height="1" width="1" x="9" y="19" /><rect fill="black" height="1" width="1" x="10" y="19" /><rect fill="black" height="1" width="1" x="11" y="19" /><rect fill="black" height="1" width="1" x="12" y="19" /><rect fill="black" height="1" width="1" x="13" y="19" /><rect fill="black" height="1" width="1" x="17" y="19" /><rect fill="black" height="1" width="1" x="18" y="19" /><rect fill="black" height="1" width="1" x="19" y="19" /><rect fill="black" height="1" width="1" x="20" y="19" /><rect fill="black" height="1" width="1" x="18" y="20" /><rect fill="black" height="1" width="1" x="19" y="20" /><rect fill="black" height="1" width="1" x="20" y="20" /><rect fill="black" height="1" width="1" x="21" y="20" /><rect fill="black" height="1" width="1" x="19" y="21" /><rect fill="black" height="1" width="1" x="20" y="21" /><rect fill="black" height="1" width="1" x="21" y="21" /><rect fill="black" height="1" width="1" x="22" y="21" /><rect fill="black" height="1" width="1" x="20" y="22" /><rect fill="black" height="1" width="1" x="21" y="22" /><rect fill="black" height="1" width="1" x="22" y="22" /><rect fill="black" height="1" width="1" x="23" y="22" /><rect fill="black" height="1" width="1" x="21" y="23" /><rect fill="black" height="1" width="1" x="22" y="23" /><rect fill="black" height="1" width="1" x="23" y="23" /></svg>